<svg width="19" height="30" viewBox="0 0 19 30" fill="none" xmlns="http://www.w3.org/2000/svg">
<g clip-path="url(#clip0_21_2)">
<path d="M5.94198 -0.0352173C5.94198 -0.0352173 10.4055 3.86739 9.79894 7.32652C9.52894 8.86565 7.48502 11.4091 8.58589 13.8222C9.77807 16.427 10.395 21.4448 5.03415 20.1457C-0.253674 18.8674 0.1585 12.3913 4.0872 8.97391C8.07067 5.50826 6.72589 1.69565 5.94198 -0.0352173Z" fill="#D30035"/>
<path d="M10.0178 11.6674C9.72171 14.3022 12.6356 16.9265 10.323 20.4926C8.71867 22.963 11.1787 26.4339 14.3378 25.8013C17.8021 25.1087 18.6591 22.9187 18.5665 20.3752C18.4452 17.1457 17.1604 16.2483 14.3013 13.8235C11.21 11.1991 13.5995 6.24652 13.5995 6.24652C13.5995 6.24652 10.3491 8.76913 10.0178 11.6674Z" fill="#D30035"/>
<path d="M0.60693 19.3761C1.58519 20.5787 3.4765 21.9952 7.09737 22.0761C8.19302 22.097 7.33737 24.1409 9.52867 25.98C11.4239 27.5752 13.9765 27.6104 15.3421 27.0952C16.1378 26.8004 16.8852 26.5148 16.31 27.2544C13.7365 30.5504 9.2678 30.3417 6.07867 29.1496C2.28823 27.733 1.33476 24.9457 0.713887 23.2083C0.0460604 21.3235 0.3878 19.1061 0.60693 19.3761Z" fill="#D30035"/>
</g>
<defs>
<clipPath id="clip0_21_2">
<rect width="18.5781" height="30" fill="white"/>
</clipPath>
</defs>
</svg>
