<svg width="28" height="30" viewBox="0 0 28 30" fill="none" xmlns="http://www.w3.org/2000/svg">
<path fill-rule="evenodd" clip-rule="evenodd" d="M14.6511 4.77907L21.5372 8.5186L15.1744 0C14.6693 0.677759 14.3546 1.47814 14.2626 2.31835C14.1706 3.15856 14.3047 4.00809 14.6511 4.77907Z" fill="url(#paint0_linear_21_10)"/>
<path fill-rule="evenodd" clip-rule="evenodd" d="M11.5396 18.6488C11.8494 18.6488 12.1524 18.7406 12.4102 18.9125C12.668 19.0843 12.8692 19.3287 12.9884 19.6147C13.1077 19.9007 13.1396 20.2156 13.0801 20.5198C13.0207 20.8239 12.8725 21.1036 12.6544 21.3237C12.4362 21.5438 12.1578 21.6944 11.8543 21.7565C11.5507 21.8186 11.2355 21.7895 10.9484 21.6728C10.6614 21.5562 10.4153 21.3571 10.2411 21.1008C10.0669 20.8445 9.97254 20.5424 9.96979 20.2326C9.96795 20.0252 10.0072 19.8196 10.0853 19.6275C10.1633 19.4355 10.2786 19.2608 10.4246 19.1135C10.5706 18.9663 10.7442 18.8494 10.9356 18.7696C11.127 18.6899 11.3322 18.6488 11.5396 18.6488Z" fill="url(#paint1_linear_21_10)"/>
<path fill-rule="evenodd" clip-rule="evenodd" d="M6.74656 1.24884L26.0303 11.714C26.188 11.7907 26.3209 11.9102 26.4139 12.0588C26.5069 12.2075 26.5562 12.3793 26.5562 12.5547C26.5562 12.73 26.5069 12.9018 26.4139 13.0505C26.3209 13.1991 26.188 13.3186 26.0303 13.3954C24.5718 14.273 22.9746 14.8958 21.307 15.2372L17.2954 23.4698C17.2954 23.4698 16.0256 26.3581 12.5303 25.2488C13.9954 23.7837 15.7675 22.4581 15.7675 20.2047C15.7675 19.0815 15.3213 18.0043 14.5271 17.2101C13.7329 16.4159 12.6558 15.9698 11.5326 15.9698C10.4094 15.9698 9.33228 16.4159 8.53809 17.2101C7.74389 18.0043 7.29772 19.0815 7.29772 20.2047C7.29772 23.1488 10.2 24.3907 11.8117 26.4349C12.1638 26.9333 12.3332 27.538 12.2912 28.1468C12.2493 28.7556 11.9986 29.3313 11.5814 29.7767C9.57912 27.7954 5.70702 24.4535 4.11632 22.2628C3.24666 21.1583 2.76816 19.7964 2.75586 18.3907C2.83226 16.8949 3.36746 15.459 4.28869 14.2781C5.20992 13.0973 6.47248 12.2287 7.9047 11.7907C8.78317 11.5348 9.69752 11.4241 10.6117 11.4628C11.8863 11.5594 13.1245 11.9332 14.2396 12.5581C15.9489 13.5628 16.7791 13.2977 17.9582 12.307C18.6559 11.7349 19.4163 9.8721 18.2373 9.43954C17.8518 9.31376 17.4577 9.21584 17.0582 9.14651C14.8675 8.72093 11.0373 8.31628 9.62795 7.51396C7.38842 6.27907 5.88144 3.73256 6.74656 1.24884Z" fill="url(#paint2_linear_21_10)"/>
<path fill-rule="evenodd" clip-rule="evenodd" d="M15.733 20.2256C16.626 15.5302 11.8609 11.0512 8.20512 11.7209L8.4493 11.6651C8.25396 11.707 8.06558 11.7558 7.88419 11.8116C6.45197 12.2497 5.18941 13.1182 4.26818 14.2991C3.34695 15.4799 2.81175 16.9159 2.73535 18.4116C2.75759 19.8215 3.24851 21.1838 4.1307 22.2837C5.7214 24.4744 9.59349 27.8163 11.5958 29.7977C12.013 29.3523 12.2637 28.7765 12.3056 28.1677C12.3475 27.5589 12.1782 26.9543 11.826 26.4558C10.1795 24.4186 7.27721 23.1698 7.27721 20.2326C7.27721 19.1094 7.72339 18.0323 8.51758 17.2381C9.31178 16.4439 10.3889 15.9977 11.5121 15.9977C12.6353 15.9977 13.7124 16.4439 14.5066 17.2381C15.3008 18.0323 15.747 19.1094 15.747 20.2326L15.733 20.2256Z" fill="url(#paint3_linear_21_10)"/>
<path fill-rule="evenodd" clip-rule="evenodd" d="M6.74694 1.24884L21.3981 9.23024L21.8167 9.46047C22.1655 9.73256 22.5144 10.2767 22.0609 11.2814C21.3632 12.7814 18.5725 14.2326 15.3562 13.0954C16.3609 13.3884 17.0446 13.0535 17.9237 12.314C18.6214 11.7419 19.3818 9.87907 18.2028 9.44652C17.8173 9.32074 17.4232 9.22282 17.0237 9.15349C14.833 8.72791 11.0028 8.32326 9.59345 7.52093C7.3888 6.27907 5.88182 3.73256 6.74694 1.24884Z" fill="url(#paint4_linear_21_10)"/>
<path fill-rule="evenodd" clip-rule="evenodd" d="M6.74609 1.24884C8.26005 6.83024 17.4763 7.2907 22.0949 9.62093L6.74609 1.24884Z" fill="url(#paint5_linear_21_10)"/>
<path fill-rule="evenodd" clip-rule="evenodd" d="M11.7908 26.4558C10.1791 24.4186 7.27682 23.1698 7.27682 20.2326C7.28081 19.2028 7.65984 18.2099 8.34299 17.4394C9.02614 16.6689 9.96662 16.1737 10.9885 16.0465C9.37109 16.052 7.82156 16.697 6.6779 17.8406C5.53425 18.9843 4.88932 20.5338 4.8838 22.1512C4.88304 22.5637 4.92512 22.9752 5.00938 23.3791C6.34194 24.886 8.26752 26.6651 9.8931 28.1721C10.528 28.7651 11.114 29.3233 11.5954 29.7977C11.996 29.3335 12.2401 28.755 12.2931 28.1442C12.3312 27.5396 12.1532 26.9412 11.7908 26.4558Z" fill="url(#paint6_linear_21_10)"/>
<path fill-rule="evenodd" clip-rule="evenodd" d="M15.7121 20.7279C15.7341 20.5613 15.7457 20.3936 15.7469 20.2256C16.626 15.5302 11.8609 11.0512 8.20508 11.7209C8.9857 11.5323 9.78865 11.4525 10.5911 11.4837C15.3841 11.6791 16.7237 16.8 15.7121 20.7279Z" fill="url(#paint7_linear_21_10)"/>
<path fill-rule="evenodd" clip-rule="evenodd" d="M1.57674 10.3535C1.99556 10.3553 2.3966 10.523 2.6921 10.8198C2.98759 11.1166 3.15349 11.5184 3.15349 11.9372V13.514H1.57674C1.15857 13.514 0.757515 13.3478 0.461818 13.0521C0.166121 12.7564 0 12.3554 0 11.9372C-4.0639e-06 11.5184 0.165894 11.1166 0.461392 10.8198C0.75689 10.523 1.15793 10.3553 1.57674 10.3535Z" fill="url(#paint8_linear_21_10)"/>
<defs>
<linearGradient id="paint0_linear_21_10" x1="11.7558" y1="4.26279" x2="25.4581" y2="4.26279" gradientUnits="userSpaceOnUse">
<stop stop-color="#FBAA19"/>
<stop offset="1" stop-color="#EF3E23"/>
</linearGradient>
<linearGradient id="paint1_linear_21_10" x1="11.0023" y1="21.6837" x2="12.0768" y2="18.7465" gradientUnits="userSpaceOnUse">
<stop stop-color="#F78D1E"/>
<stop offset="1" stop-color="#F37121"/>
</linearGradient>
<linearGradient id="paint2_linear_21_10" x1="2.48377" y1="22.6954" x2="19.1791" y2="4.8" gradientUnits="userSpaceOnUse">
<stop stop-color="#FEBE2D"/>
<stop offset="1" stop-color="#F04E23"/>
</linearGradient>
<linearGradient id="paint3_linear_21_10" x1="14.2819" y1="12.2372" x2="5.04465" y2="26.4558" gradientUnits="userSpaceOnUse">
<stop stop-color="#EA4425"/>
<stop offset="1" stop-color="#FDBB27"/>
</linearGradient>
<linearGradient id="paint4_linear_21_10" x1="0.16787" y1="7.37442" x2="29.3307" y2="7.37442" gradientUnits="userSpaceOnUse">
<stop stop-color="#F47920"/>
<stop offset="1" stop-color="#E93825"/>
</linearGradient>
<linearGradient id="paint5_linear_21_10" x1="-15.2376" y1="5.42791" x2="44.0996" y2="5.42791" gradientUnits="userSpaceOnUse">
<stop stop-color="#FDCA0B"/>
<stop offset="1" stop-color="#F5841F"/>
</linearGradient>
<linearGradient id="paint6_linear_21_10" x1="5.95822" y1="12.607" x2="12.1326" y2="34.1442" gradientUnits="userSpaceOnUse">
<stop stop-color="#E73C25"/>
<stop offset="1" stop-color="#FAA21B"/>
</linearGradient>
<linearGradient id="paint7_linear_21_10" x1="-35.8391" y1="16.1023" x2="52.2423" y2="16.1023" gradientUnits="userSpaceOnUse">
<stop stop-color="#FDBA12"/>
<stop offset="1" stop-color="#F7921E"/>
</linearGradient>
<linearGradient id="paint8_linear_21_10" x1="0.0558139" y1="11.6651" x2="3.35581" y2="12.2512" gradientUnits="userSpaceOnUse">
<stop stop-color="#FEBE2D"/>
<stop offset="1" stop-color="#F04E23"/>
</linearGradient>
</defs>
</svg>
