<svg width="27" height="30" viewBox="0 0 27 30" fill="none" xmlns="http://www.w3.org/2000/svg">
<path d="M11.5534 22.9094H16.4695C16.9904 22.8462 17.4723 22.6013 17.8303 22.2176C18.1883 21.834 18.3994 21.3363 18.4263 20.8123V13.7574C18.4263 12.8216 17.6637 12.0639 16.7231 12.0639C15.7834 12.0639 15.0208 12.8216 15.0208 13.7574V18.2361C15.0178 18.5718 14.8826 18.8928 14.6446 19.1295C14.4066 19.3663 14.0849 19.4997 13.7492 19.501H11.5302C11.0798 19.5015 10.6479 19.6802 10.3288 19.998C10.0097 20.3158 9.82926 20.747 9.82696 21.1974V21.2206C9.83258 21.6733 10.0175 22.1053 10.3411 22.4219C10.6648 22.7384 11.1007 22.9137 11.5534 22.9094ZM8.60664 17.7377C8.3709 17.7384 8.13734 17.6926 7.91929 17.603C7.70125 17.5133 7.503 17.3816 7.33585 17.2154C7.16871 17.0491 7.03594 16.8516 6.94514 16.634C6.85434 16.4165 6.80728 16.1832 6.80664 15.9474V8.89355C6.83608 8.34519 7.05744 7.82465 7.43198 7.42304C7.80652 7.02144 8.31037 6.76435 8.85535 6.69678H13.7831C14.2604 6.69617 14.7189 6.88288 15.06 7.21676C15.4012 7.55064 15.5977 8.00504 15.6073 8.48226C15.6121 8.9613 15.4253 9.42291 15.0876 9.76355C14.7489 10.1052 14.2883 10.2977 13.8063 10.2997H11.5757C10.9273 10.2997 10.4018 10.8223 10.4018 11.4677V15.9465C10.4018 16.9336 9.59858 17.7348 8.60567 17.7368L8.60664 17.7377Z" fill="white"/>
<path d="M13.784 6.79837H8.86783C8.3464 6.86061 7.86384 7.10544 7.50567 7.48947C7.1475 7.8735 6.93685 8.37193 6.91106 8.89643V15.9513C6.89659 16.2579 6.96588 16.5626 7.11147 16.8329C7.25707 17.1031 7.47349 17.3286 7.73751 17.4851C8.00205 17.6424 8.30411 17.7254 8.61186 17.7254C8.91962 17.7254 9.22168 17.6424 9.48622 17.4851C10.0253 17.1639 10.3427 16.5755 10.3127 15.9513V11.4687C10.3117 11.1329 10.4453 10.8106 10.6843 10.5745C10.8027 10.457 10.9432 10.364 11.0976 10.3009C11.2521 10.2378 11.4174 10.2058 11.5843 10.2068H13.8072C14.2568 10.2063 14.6879 10.0282 15.0069 9.71145C15.3259 9.39465 15.5068 8.96469 15.5104 8.51514V8.49095C15.5008 8.0392 15.3148 7.60916 14.9921 7.29283C14.6695 6.97651 14.2358 6.79903 13.784 6.79837Z" fill="white"/>
<path d="M14.5597 3.61551C16.4434 3.61264 18.2512 4.35748 19.5861 5.68648C20.2447 6.34221 20.7666 7.12204 21.1218 7.98085C21.4769 8.83965 21.6582 9.76037 21.6552 10.6897V24.2613C21.5724 24.7214 21.3461 25.1435 21.0086 25.467C20.6712 25.7906 20.24 25.9989 19.7768 26.0623H10.7032C8.82313 26.0642 7.01874 25.3217 5.68452 23.9971C5.02655 23.3433 4.50447 22.5657 4.14837 21.7091C3.79228 20.8526 3.60919 19.9341 3.60968 19.0065V5.81035C3.60913 5.22865 3.83812 4.67022 4.2469 4.25636C4.65568 3.84251 5.21124 3.60665 5.7929 3.60002L14.5597 3.61551ZM14.5906 2.49142e-05H5.65548C2.53161 0.00679911 0.00193548 2.52583 0 5.63131V19.0732C0.000243772 20.4683 0.276661 21.8496 0.813313 23.1373C1.34996 24.425 2.13623 25.5938 3.12677 26.5762C5.13454 28.5674 7.84934 29.6823 10.6771 29.6768H20.1252C22.8174 29.461 24.9755 27.3707 25.2639 24.6997V10.5852C25.2621 9.19157 24.9846 7.81209 24.4472 6.52621C23.9099 5.24034 23.1235 4.0735 22.1332 3.09293C20.1268 1.10591 17.4154 -0.00606884 14.5916 2.49142e-05H14.5906Z" fill="white"/>
</svg>
