<svg width="35" height="30" viewBox="0 0 35 30" fill="none" xmlns="http://www.w3.org/2000/svg">
<g clip-path="url(#clip0_21_29)">
<path d="M12.105 0.827408C11.7929 0.316768 11.2389 0.00380306 10.6405 0H1.73756C0.777931 0 0 0.777931 0 1.73756C0 2.06512 0.0917192 2.38614 0.264771 2.66425L2.55669 6.0318L14.0163 3.54958L12.105 0.827408Z" fill="#C9F4FF"/>
<path d="M14.0656 3.61578C13.7497 3.10501 13.1934 2.79249 12.5928 2.78837H3.72303C3.07291 2.75839 2.46101 3.09594 2.13963 3.66186C1.81825 4.22777 1.84181 4.9262 2.2006 5.46918L4.75729 9.52347L16.5975 7.67008L14.0656 3.61578Z" fill="#51B9FF"/>
<path d="M4.6504 9.35798C4.35953 8.89194 4.30145 8.31728 4.4932 7.80246C4.75917 7.12359 5.41901 6.6815 6.14801 6.69373H15.0178C15.6188 6.69627 16.1758 7.00919 16.4906 7.52114L24.4585 20.1557C24.6316 20.4338 24.7233 20.7548 24.7233 21.0824C24.722 21.4097 24.6304 21.7304 24.4585 22.0091L20.0071 29.0668C19.6866 29.5703 19.1311 29.8752 18.5343 29.8752C17.9375 29.8752 17.382 29.5703 17.0615 29.0668L4.6504 9.35798Z" fill="#007BFC"/>
<path d="M27.0898 13.3957C27.4102 13.8992 27.9657 14.2041 28.5625 14.2041C29.1594 14.2041 29.7149 13.8992 30.0353 13.3957L31.566 10.9714L34.4868 6.33794C34.6598 6.05983 34.7516 5.73881 34.7516 5.41125C34.7503 5.08387 34.6586 4.7632 34.4868 4.48455L32.17 0.827408C31.8541 0.316639 31.2978 0.00411768 30.6973 0H21.7943C21.3335 0 20.8916 0.183063 20.5657 0.508919C20.2399 0.834774 20.0567 1.27673 20.0567 1.73756C20.0536 2.06674 20.1487 2.38939 20.3298 2.66425L27.0898 13.3957Z" fill="#007BFC"/>
</g>
<defs>
<clipPath id="clip0_21_29">
<rect width="34.7511" height="30" fill="white"/>
</clipPath>
</defs>
</svg>
